<?xml version="1.0" standalone="no"?>
<!DOCTYPE svg PUBLIC "-//W3C//DTD SVG 20010904//EN"
 "http://www.w3.org/TR/2001/REC-SVG-20010904/DTD/svg10.dtd">
<svg version="1.0" xmlns="http://www.w3.org/2000/svg"
 width="366.000000pt" height="366.000000pt" viewBox="0 0 366.000000 366.000000"
 preserveAspectRatio="xMidYMid meet">
<metadata>
Created by potrace 1.11, written by Peter Selinger 2001-2013
</metadata>
<g transform="translate(0.000000,366.000000) scale(0.100000,-0.100000)"
fill="#000000" stroke="none">
<path d="M1565 3594 c-585 -91 -1086 -460 -1340 -989 -122 -253 -175 -489
-175 -775 0 -287 53 -521 175 -776 227 -472 654 -821 1170 -953 265 -69 605
-69 870 0 516 133 942 480 1170 954 122 253 175 489 175 775 0 286 -53 522
-175 775 -256 533 -759 901 -1350 990 -125 19 -397 18 -520 -1z m545 -74 c871
-142 1491 -926 1429 -1808 -65 -945 -883 -1657 -1827 -1591 -945 65 -1657 883
-1591 1827 70 1010 987 1735 1989 1572z"/>
<path d="M1826 3233 c-4 -70 -9 -154 -12 -185 -3 -33 -1 -58 4 -58 13 0 22 50
22 116 l0 54 55 0 c70 0 72 18 3 22 l-53 3 2 50 c1 28 2 60 2 73 1 20 6 22 56
22 30 0 55 5 55 10 0 6 -22 10 -49 10 -27 0 -56 3 -64 6 -13 4 -16 -16 -21
-123z"/>
<path d="M1658 3345 c-2 -3 4 -67 14 -142 10 -75 17 -138 15 -139 -1 -2 -36
58 -77 131 -41 74 -79 135 -84 135 -9 0 -7 -25 20 -232 9 -71 21 -128 25 -128
12 0 11 29 -6 145 -8 55 -14 109 -15 120 0 11 32 -36 71 -105 73 -130 85 -147
94 -138 7 7 -36 340 -45 351 -3 4 -9 5 -12 2z"/>
<path d="M1753 3268 c4 -46 7 -127 7 -180 0 -62 4 -98 10 -98 7 0 10 40 9 113
-2 154 -10 247 -22 247 -6 0 -8 -30 -4 -82z"/>
<path d="M2060 3312 c-18 -14 -28 -44 -46 -138 -13 -65 -21 -131 -18 -146 11
-53 80 -76 123 -40 29 24 75 249 59 293 -17 50 -76 65 -118 31z m84 -18 c21
-20 20 -62 -4 -181 -19 -96 -34 -123 -68 -123 -21 0 -49 18 -56 36 -9 22 32
233 50 262 17 26 55 29 78 6z"/>
<path d="M1408 3138 l3 -163 -87 133 c-47 72 -92 132 -99 132 -9 0 4 -52 40
-166 30 -91 56 -168 59 -172 19 -18 13 19 -19 118 -20 61 -35 113 -33 116 2 2
35 -44 72 -101 37 -58 72 -105 78 -105 5 0 8 53 6 135 -2 74 0 131 3 127 4 -4
23 -60 43 -126 22 -69 41 -115 46 -110 10 10 -90 336 -105 341 -6 2 -9 -58 -7
-159z"/>
<path d="M2287 3257 c-22 -15 -97 -220 -97 -261 0 -37 7 -49 37 -65 34 -17 68
-13 90 12 24 27 93 217 93 257 0 56 -77 91 -123 57z m85 -24 c10 -9 18 -24 18
-34 0 -28 -70 -222 -87 -241 -38 -42 -100 -4 -90 54 8 50 67 207 84 223 19 20
52 19 75 -2z"/>
<path d="M2433 3057 c-43 -83 -79 -157 -81 -162 -4 -15 62 -45 98 -45 16 0 35
7 44 15 20 21 113 194 121 228 9 36 -14 71 -65 97 l-39 20 -78 -153z m158 71
c10 -18 4 -35 -37 -116 -63 -122 -79 -142 -113 -142 -40 0 -68 23 -56 46 6 11
38 74 73 142 l62 122 30 -15 c16 -8 35 -25 41 -37z"/>
<path d="M1040 3150 c-32 -32 -24 -75 33 -184 57 -110 90 -142 131 -132 45 11
69 43 63 82 -6 36 -97 213 -123 239 -22 22 -80 19 -104 -5z m93 -17 c21 -24
117 -210 117 -228 0 -19 -39 -55 -60 -55 -9 0 -26 10 -37 23 -27 29 -113 201
-113 226 0 45 62 68 93 34z"/>
<path d="M2295 2533 c-167 -202 -254 -322 -261 -360 -4 -19 0 -51 10 -80 l16
-48 -96 -141 c-52 -77 -105 -153 -117 -167 l-22 -27 -114 166 -113 166 18 56
c22 71 11 150 -36 249 -64 138 -274 303 -385 303 -60 0 -78 -24 -83 -109 -5
-86 16 -171 69 -279 72 -148 207 -252 324 -252 l51 0 121 -171 122 -172 -42
-59 c-119 -170 -230 -298 -342 -398 -160 -142 -162 -146 -147 -218 16 -77 39
-96 106 -87 72 10 98 39 142 154 59 156 116 267 217 420 l95 144 79 -119 c118
-177 155 -245 213 -397 63 -164 88 -196 152 -198 92 -3 94 -2 113 71 20 77 7
99 -126 217 -63 55 -131 119 -152 142 -34 37 -222 287 -241 318 -4 7 43 82
114 181 l120 169 56 6 c67 7 94 23 139 85 37 51 270 436 281 465 18 50 -26 -5
-166 -204 -85 -122 -158 -223 -163 -225 -4 -3 -10 1 -13 10 -3 9 53 100 145
234 142 207 177 263 155 249 -5 -3 -81 -107 -169 -231 -95 -133 -166 -224
-174 -223 -8 1 -14 7 -13 12 0 6 71 112 157 237 85 125 155 230 155 233 0 21
-35 -23 -179 -225 -128 -177 -168 -227 -178 -218 -10 8 -9 15 6 37 117 168
291 422 291 426 0 18 -29 -12 -135 -142z"/>
<path d="M649 1063 c-62 -42 -108 -78 -102 -80 7 -3 33 10 59 28 l47 32 19
-26 c33 -45 112 -29 132 26 6 18 -18 82 -33 92 -4 2 -59 -30 -122 -72z m131
21 c17 -30 7 -51 -33 -74 -25 -14 -28 -13 -54 12 -15 15 -25 29 -22 31 14 13
85 57 90 57 3 0 12 -12 19 -26z"/>
<path d="M2880 1125 c0 -3 14 -32 30 -65 l30 -60 -72 6 c-93 9 -83 -6 12 -16
57 -6 81 -15 126 -45 31 -20 58 -34 62 -31 3 3 3 8 1 9 -2 2 -29 22 -59 44
-42 31 -62 54 -84 102 -16 33 -33 61 -38 61 -4 0 -8 -2 -8 -5z"/>
<path d="M731 944 c-56 -47 -100 -88 -97 -91 3 -3 26 12 52 33 l46 38 19 -23
c27 -33 24 -44 -22 -86 -22 -20 -38 -39 -36 -42 10 -9 77 51 83 74 4 14 16 24
34 28 25 6 57 32 74 62 4 7 0 25 -8 41 -31 59 -35 58 -145 -34z m139 4 c0 -20
-46 -58 -70 -58 -9 0 -25 10 -36 21 -19 21 -19 21 26 60 l45 39 17 -23 c10
-12 18 -30 18 -39z"/>
<path d="M1560 935 l0 -75 33 1 c30 2 30 2 5 6 -23 4 -28 9 -28 33 0 24 5 29
28 33 l27 4 -27 2 c-24 1 -28 5 -28 30 0 25 5 30 28 34 25 4 25 4 -5 6 l-33 1
0 -75z"/>
<path d="M1637 1004 c-16 -16 -6 -54 19 -70 16 -11 24 -24 22 -37 -4 -30 -26
-33 -38 -5 l-10 23 3 -25 c1 -19 8 -25 27 -25 21 0 26 5 28 31 2 25 -2 33 -23
42 -19 9 -25 18 -23 34 4 30 26 34 38 6 l10 -23 -3 25 c-2 25 -34 40 -50 24z"/>
<path d="M1714 1001 c18 -7 66 -3 66 5 0 2 -19 4 -42 3 -31 0 -37 -3 -24 -8z"/>
<path d="M1857 1003 c-4 -3 -7 -13 -7 -22 0 -11 3 -10 15 5 12 16 16 17 24 5
11 -17 5 -37 -21 -70 -28 -36 -24 -61 10 -60 23 2 24 2 5 6 -24 5 -31 27 -13
38 23 14 41 65 30 85 -11 20 -31 26 -43 13z"/>
<path d="M1924 997 c-3 -8 -4 -41 -2 -73 3 -51 6 -59 23 -59 42 0 44 135 2
143 -9 2 -20 -3 -23 -11z m43 -75 c-5 -48 -10 -57 -26 -47 -12 7 -15 108 -4
119 16 16 35 -30 30 -72z"/>
<path d="M1996 994 c-8 -22 -8 -26 4 -19 5 3 11 -21 13 -57 3 -63 3 -63 5 15
2 72 -8 98 -22 61z"/>
<path d="M2052 965 c-27 -56 -27 -53 0 -57 14 -2 25 -13 29 -28 4 -15 7 5 8
53 1 42 -3 77 -7 77 -4 0 -18 -20 -30 -45z m28 -20 c0 -18 -5 -25 -20 -25 -20
0 -20 1 -4 25 9 14 18 25 20 25 2 0 4 -11 4 -25z"/>
<path d="M2747 942 c-15 -15 -27 -30 -27 -33 0 -10 201 -181 206 -176 3 3 -16
25 -42 49 l-47 45 21 21 c29 29 45 28 87 -9 20 -18 38 -29 41 -27 8 9 -66 68
-85 68 -11 0 -24 12 -31 30 -13 32 -49 60 -78 60 -10 0 -30 -13 -45 -28z m91
-15 c27 -25 28 -48 3 -71 -19 -17 -21 -17 -60 15 -23 18 -41 36 -41 40 0 14
52 49 64 42 6 -3 21 -15 34 -26z"/>
<path d="M860 863 c-31 -32 -71 -75 -90 -95 l-34 -38 29 -30 c16 -16 33 -30
39 -30 5 0 -4 15 -22 33 l-32 33 40 39 40 39 30 -29 c16 -16 32 -26 35 -24 3
3 -9 18 -25 34 l-30 29 37 38 c20 21 42 38 47 38 5 0 24 -12 40 -27 27 -24 26
-23 -3 10 -19 20 -38 37 -41 37 -3 0 -30 -26 -60 -57z"/>
<path d="M2657 850 l-46 -41 35 -82 c20 -45 40 -93 45 -106 11 -28 18 -32 -93
57 -74 60 -93 72 -86 53 2 -7 112 -98 196 -164 27 -21 21 5 -28 123 -28 67
-49 124 -47 127 3 2 46 -40 96 -94 l91 -97 35 34 c19 18 32 36 30 39 -3 2 -19
-9 -36 -25 l-31 -29 -39 44 -40 45 30 24 c17 13 31 28 31 35 0 6 -13 -1 -28
-16 -15 -15 -33 -27 -38 -27 -5 0 -27 17 -48 39 l-37 38 32 27 c17 15 29 29
27 32 -3 2 -26 -14 -51 -36z"/>
<path d="M912 735 c-45 -57 -78 -107 -73 -109 4 -3 32 26 61 65 29 38 54 68
56 66 2 -2 -11 -41 -30 -88 -19 -46 -32 -86 -30 -88 4 -4 52 27 124 81 l45 33
-22 -30 c-11 -16 -37 -50 -56 -75 -20 -24 -33 -48 -31 -52 3 -5 43 40 89 99
46 60 80 109 75 111 -5 2 -49 -26 -97 -62 -48 -35 -89 -61 -91 -57 -1 4 16 51
38 106 22 54 40 100 40 102 0 17 -29 -13 -98 -102z"/>
<path d="M1084 630 c-69 -108 -81 -130 -68 -130 13 1 155 230 143 230 -5 0
-39 -45 -75 -100z"/>
<path d="M2486 708 c39 -69 138 -218 146 -218 11 0 12 -2 -70 128 -35 56 -68
102 -74 102 -5 0 -6 -6 -2 -12z"/>
<path d="M1123 611 c-29 -54 -53 -108 -53 -119 0 -12 12 -29 26 -39 23 -15 29
-15 51 -2 26 15 142 219 125 219 -6 0 -33 -42 -61 -93 -56 -105 -71 -122 -101
-112 -31 10 -25 39 30 140 51 95 55 105 43 105 -5 0 -32 -45 -60 -99z"/>
<path d="M2380 653 c0 -7 117 -223 126 -232 2 -2 24 9 49 24 55 32 52 48 -4
17 l-38 -22 -59 110 c-52 97 -74 127 -74 103z"/>
<path d="M1245 525 c-26 -69 -45 -128 -42 -132 4 -3 12 7 18 23 6 16 22 56 35
89 l24 60 -6 -102 c-3 -57 -4 -103 -1 -103 2 0 30 34 61 75 31 41 58 75 61 75
2 0 -3 -16 -11 -35 -42 -102 -54 -137 -43 -133 14 5 110 246 100 252 -4 3 -38
-36 -75 -85 -37 -49 -70 -89 -73 -89 -5 0 4 150 13 203 10 61 -16 20 -61 -98z"/>
<path d="M2310 632 c-19 -9 -36 -17 -38 -18 -3 -2 28 -79 77 -186 l30 -67 41
18 c69 31 61 40 -16 16 -18 -6 -24 0 -38 34 -22 56 -21 59 21 76 46 19 37 31
-12 15 -20 -7 -38 -10 -39 -8 -8 9 -47 90 -44 92 2 2 18 8 36 15 17 8 32 17
32 22 0 12 -9 11 -50 -9z"/>
<path d="M2163 580 l-22 -9 40 -118 c21 -65 41 -123 44 -130 6 -19 63 4 82 33
14 22 13 30 -12 112 -15 48 -34 95 -43 105 -16 18 -53 21 -89 7z m82 -28 c22
-53 55 -158 55 -173 0 -19 -55 -55 -63 -41 -8 12 -67 206 -67 218 0 13 36 23
57 16 6 -2 15 -11 18 -20z"/>
<path d="M1518 433 c-13 -71 -22 -132 -20 -137 7 -13 18 19 26 76 l7 47 47 -4
c34 -4 42 -3 27 4 -11 5 -31 10 -44 10 -22 1 -23 4 -17 39 3 20 6 45 6 56 0
16 5 18 45 13 51 -7 62 7 14 17 -67 13 -65 17 -91 -121z"/>
<path d="M1676 527 c-13 -9 -19 -36 -26 -112 -12 -119 -2 -145 55 -145 46 0
54 18 62 135 5 83 4 98 -12 115 -21 23 -53 26 -79 7z m73 -25 c13 -24 -2 -187
-19 -207 -16 -19 -44 -19 -60 0 -15 18 -6 191 12 212 15 19 56 16 67 -5z"/>
<path d="M1940 513 c0 -16 7 -73 15 -128 8 -55 15 -103 15 -107 0 -14 55 -8
78 8 17 11 22 25 22 57 0 59 -19 169 -32 184 -6 7 -30 13 -54 13 -41 0 -44 -2
-44 -27z m84 -5 c7 -13 17 -45 20 -73 4 -27 9 -64 12 -81 7 -36 -15 -64 -50
-64 -22 0 -24 6 -38 113 -8 61 -13 115 -11 120 9 16 53 6 67 -15z"/>
<path d="M1812 518 c-19 -19 -16 -208 4 -236 21 -31 69 -30 90 3 13 20 15 43
12 119 -3 56 -10 101 -18 111 -15 18 -71 20 -88 3z m72 -14 c12 -12 16 -37 16
-108 0 -94 -8 -116 -41 -116 -29 0 -38 24 -44 110 -4 65 -2 88 10 107 18 27
37 29 59 7z"/>
</g>
</svg>
